<?xml version="1.0" encoding="UTF-8"?>
<svg xmlns="http://www.w3.org/2000/svg" id="Layer_1" width="270.05" height="35.93" viewBox="0 0 270.05 35.93">
  <defs>
    <style>.cls-1{fill:#babcbe;}.cls-1,.cls-2{stroke-width:0px;}.cls-3{stroke:#fff;stroke-width:.1px;}.cls-3,.cls-2{fill:#fff;}</style>
  </defs>
  <rect class="cls-2" x="20.96" y="5.32" width="9.52" height="5.92"/>
  <path class="cls-1" d="M5.41,5.4v-1.52c0-2.61,1.45-3.88,4.79-3.88h15.55c3.35,0,4.78,1.23,4.78,3.84v1.56H5.41Z"/>
  <rect class="cls-1" x="24.67" y="20.99" width="5.85" height="3.68"/>
  <rect class="cls-1" x="5.4" y="5.44" width="5.85" height="9.53"/>
  <rect class="cls-2" x="6.11" y="24.67" width="8.83" height="5.89"/>
  <rect class="cls-2" x="20.96" y="24.67" width="9.57" height="5.86"/>
  <rect class="cls-2" x="24.68" y="16.47" width="5.87" height="3"/>
  <rect class="cls-1" x="24.67" y="5.31" width="5.86" height="9.63"/>
  <rect class="cls-2" x="5.31" y="5.4" width="9.63" height="5.85"/>
  <path class="cls-2" d="M5.4,30.53h-1.52c-2.61,0-3.88-1.45-3.88-4.8v-15.56c0-3.35,1.23-4.78,3.84-4.78h1.56v25.13Z"/>
  <path class="cls-2" d="M30.53,5.41h1.52c2.61,0,3.89,1.45,3.89,4.79v15.55c0,3.35-1.24,4.78-3.85,4.78h-1.56V5.41Z"/>
  <rect class="cls-1" x="5.4" y="20.99" width="5.85" height="9.58"/>
  <path class="cls-1" d="M30.53,30.53v1.52c0,2.61-1.45,3.88-4.8,3.88h-15.55c-3.35,0-4.78-1.23-4.78-3.84v-1.56h25.13Z"/>
  <rect class="cls-2" x="4.51" y="16.47" width="6.76" height="3"/>
  <rect class="cls-1" x="16.46" y="24.67" width="3" height="5.87"/>
  <rect class="cls-1" x="16.46" y="5.38" width="3" height="5.87"/>
  <path class="cls-2" d="M64.44,19.48h-10.63v7.16h11.86v3.88h-16.67V5.39h16.07v3.88h-11.26v6.34h10.63v3.88Z"/>
  <path class="cls-2" d="M78.13,30.52V5.39h5.74l7.27,10.81c1.94,2.95,3.47,5.74,4.74,8.57l.11-.04c-.37-3.36-.41-6.41-.41-10.03V5.39h4.47v25.13h-5.11l-7.34-11.18c-1.83-2.91-3.69-5.97-5.07-8.87l-.15.04c.19,3.36.22,6.6.22,10.36v9.66h-4.47Z"/>
  <path class="cls-2" d="M128.55,19.49h-10.63v7.15h11.86v3.87h-16.67V5.41h16.07v3.87h-11.26v6.33h10.63v3.87Z"/>
  <path class="cls-2" d="M142.25,5.79c1.86-.3,4.7-.56,7.72-.56,3.91,0,6.49.67,8.24,2.08,1.38,1.08,2.27,2.86,2.27,5.02,0,3.35-2.46,5.5-4.77,6.25v.11c1.83.71,2.95,2.45,3.58,4.72.89,3.12,1.6,6.1,2.16,7.1h-4.92c-.41-.74-1.04-2.68-1.83-5.88-.82-3.23-2.09-4.31-4.92-4.39h-2.76v10.26h-4.77V5.79ZM147.03,16.79h3.28c3.36,0,5.41-1.56,5.41-4.02,0-2.83-2.24-3.98-5.33-3.98-1.79,0-2.83.15-3.36.26v7.73Z"/>
  <path class="cls-2" d="M192.43,29.26c-1.19.57-3.95,1.26-7.46,1.26-8.72,0-14.09-4.92-14.09-12.28s5.97-12.78,14.73-12.78c3.5,0,5.97.68,7.01,1.22l-1.08,3.63c-1.34-.61-3.36-1.11-5.7-1.11-5.93,0-9.92,3.3-9.92,8.87,0,4.92,3.47,8.65,9.8,8.65,2.16,0,4.44-.39,5.85-1l.86,3.55Z"/>
  <path class="cls-2" d="M214.99,30.54c-7.79,0-12.94-5.25-12.94-12.3,0-7.52,5.52-12.81,13.31-12.81s13.09,5.25,13.09,12.34c0,7.81-5.7,12.77-13.42,12.77h-.04ZM215.25,26.94c5.03,0,8.13-3.85,8.13-9.03,0-4.64-2.87-8.89-8.09-8.89s-8.16,4.14-8.16,9.1,3.09,8.81,8.09,8.81h.04Z"/>
  <path class="cls-2" d="M241.49,30.51V5.38h5.74l7.27,10.81c1.94,2.95,3.47,5.74,4.73,8.57l.11-.04c-.37-3.36-.41-6.41-.41-10.03V5.38h4.47v25.13h-5.11l-7.35-11.18c-1.83-2.91-3.69-5.97-5.07-8.87l-.15.04c.19,3.36.22,6.6.22,10.36v9.66h-4.47Z"/>
  <path class="cls-3" d="M267.59,5.44c.41,0,.81.1,1.19.31.38.21.68.5.9.89.22.39.33.79.33,1.21s-.11.82-.32,1.2c-.21.38-.51.68-.89.89-.38.21-.78.32-1.2.32s-.82-.11-1.2-.32c-.38-.21-.68-.51-.89-.89-.21-.38-.32-.78-.32-1.2s.11-.83.33-1.21c.22-.39.52-.68.9-.89.38-.21.78-.31,1.19-.31ZM267.59,5.91c-.33,0-.65.08-.95.25-.3.17-.54.4-.72.71-.17.31-.26.64-.26.98s.09.66.26.97c.17.31.41.55.72.72s.63.26.96.26.66-.09.96-.26c.31-.17.54-.41.72-.72s.26-.63.26-.97-.09-.67-.26-.98c-.17-.31-.42-.55-.72-.71-.31-.17-.62-.25-.96-.25ZM266.5,9.14v-2.56h.52c.49,0,.76,0,.82,0,.17.01.31.05.4.1.1.05.17.13.24.25.06.11.1.23.1.37,0,.18-.06.34-.18.47-.12.13-.29.21-.51.24.08.03.14.06.18.1.04.03.1.1.17.2.02.03.08.13.19.31l.3.52h-.64l-.21-.42c-.15-.28-.26-.45-.36-.53-.09-.07-.21-.11-.36-.11h-.14v1.05h-.52ZM267.02,7.69h.21c.3,0,.49-.01.56-.03.07-.02.13-.06.17-.12.04-.06.06-.12.06-.2s-.02-.13-.06-.19c-.04-.06-.1-.1-.17-.12s-.26-.04-.56-.04h-.21v.7Z"/>
</svg>